<svg width="24" height="24" viewBox="0 0 24 24" fill="none" xmlns="http://www.w3.org/2000/svg">
<path d="M23.51 19.21L22.2 17.73C20.75 16.09 19.56 13.03 19.56 10.93V9.6C19.56 6.66 17.6 4.03 14.73 3C14.76 2.85 14.78 2.69 14.78 2.53C14.78 1.13 13.54 0 12.01 0C10.48 0 9.24 1.13 9.24 2.53C9.24 2.69 9.26 2.85 9.29 3C6.48 4 4.46 6.5 4.46 9.42C4.46 12.34 2.8 16.63 0.78 18.92L0.51 19.22C0.18 19.59 0 20.05 0 20.53C0 21.64 0.95 21.66 2.15 21.66H9.01C9.51 23.03 10.65 24 12 24C13.35 24 14.49 23.03 14.99 21.66H21.85C23.05 21.66 24 21.64 24 20.53C24 20.05 23.82 19.59 23.49 19.22L23.51 19.21ZM12.02 22.99C11.23 22.99 10.51 22.46 10.11 21.65H13.93C13.52 22.46 12.81 22.99 12.02 22.99ZM21.87 20.15H2.17C2.05 20.15 1.87 20.15 1.71 20.15L1.92 19.91C4.2 17.34 5.98 12.73 5.98 9.42C5.98 7.24 7.52 5.23 9.81 4.41L11.04 3.97L10.77 2.69C10.76 2.62 10.75 2.57 10.75 2.52C10.75 1.96 11.33 1.49 12.02 1.49C12.71 1.49 13.29 1.96 13.29 2.52C13.29 2.56 13.29 2.62 13.27 2.69L13.01 3.96L14.23 4.4C16.52 5.23 18.06 7.31 18.06 9.59V10.92C18.06 13.39 19.39 16.81 21.08 18.72L22.33 20.13C22.16 20.13 21.99 20.13 21.87 20.13V20.15Z" fill="#3A3A3A"/>
</svg>
