<svg width="102" height="32" viewBox="0 0 102 32" fill="none" xmlns="http://www.w3.org/2000/svg">
<path d="M64.1519 16.5112C64.1519 18.5609 62.4546 20.2214 60.3791 20.2214C59.7547 20.2214 59.1479 20.0744 58.6026 19.789L65.2248 12.8701L64.3806 12.1263C63.2813 11.1577 61.8566 10.6215 60.3791 10.6215C58.0046 10.6215 55.9555 11.988 54.9881 13.9685C54.7858 13.562 54.5571 13.1642 54.2581 12.8096H55.5597V10.6388H49.8081C49.685 10.6301 49.5531 10.6301 49.43 10.6388H48.4626V10.7512C46.9763 11.0366 45.7099 11.8669 44.848 13.0085V10.4053H42.7286V12.0312C41.6732 11.1491 40.3189 10.6388 38.859 10.6388C36.4933 10.6388 34.453 11.9966 33.4768 13.9598C32.5094 11.9966 30.4603 10.6388 28.0946 10.6388C26.6523 10.6388 25.3067 11.1404 24.2514 12.0139V10.4053H22V31.9921H24.2514V21.0344C25.3067 21.9079 26.6523 22.4095 28.0946 22.4095C30.4603 22.4095 32.5006 21.0517 33.4768 19.0884C34.4442 21.0517 36.4933 22.4095 38.859 22.4095C40.3189 22.4095 41.6732 21.8992 42.7286 21.0171V22.6776H44.848V20.0484C45.9386 21.4755 47.6711 22.4008 49.6234 22.4008C51.7077 22.4008 53.3963 24.07 53.3963 26.1111C53.3963 28.1522 51.6989 29.8213 49.6234 29.8213C47.548 29.8213 45.8506 28.1522 45.8506 26.1111V25.2462H43.6432V26.1111C43.6432 29.3543 46.3255 32.0008 49.6322 32.0008C52.939 32.0008 55.6213 29.363 55.6213 26.1111C55.6213 24.1565 54.6627 22.3922 53.1061 21.3111C53.9327 20.7403 54.5835 19.9706 55.0145 19.0798C55.3047 19.6765 55.7004 20.2214 56.1929 20.6971C57.3186 21.7868 58.8137 22.3922 60.3967 22.3922C63.6946 22.3922 66.3857 19.7544 66.3857 16.5025V15.6377H64.1783V16.5025L64.1519 16.5112ZM57.0372 18.2495C56.747 17.722 56.5975 17.1252 56.5975 16.5112C56.5975 14.4615 58.2948 12.8009 60.3703 12.8009C60.9156 12.8009 61.4432 12.9134 61.9357 13.1296L57.0372 18.2495ZM53.3963 16.5112C53.3963 18.5609 51.6989 20.2214 49.6234 20.2214C47.548 20.2214 45.8506 18.5522 45.8506 16.5112C45.8506 14.4701 47.4336 12.8961 49.4124 12.8096H49.8081C51.8221 12.9047 53.4051 14.5306 53.4051 16.5112H53.3963ZM38.859 12.7923C40.9433 12.7923 42.6318 14.4615 42.6318 16.5025C42.6318 18.5436 40.9345 20.2128 38.859 20.2128C36.7835 20.2128 35.0862 18.5436 35.0862 16.5025C35.0862 14.4615 36.7835 12.7923 38.859 12.7923ZM28.0946 12.7923C30.1789 12.7923 31.8674 14.4615 31.8674 16.5025C31.8674 18.5436 30.1701 20.2128 28.0946 20.2128C26.0191 20.2128 24.3217 18.5436 24.3217 16.5025C24.3217 14.4615 26.0191 12.7923 28.0946 12.7923Z" fill="#ADD3FF"/>
<path d="M99.7663 9.92857V16.0518C99.7663 18.1015 98.0689 19.762 95.9934 19.762C93.9179 19.762 92.2206 18.0928 92.2206 16.0518V9.92857H91.0949V9.31452H88.9754V10.9404C87.9201 10.0583 86.5658 9.54803 85.1059 9.54803C83.0743 9.54803 81.2891 10.5513 80.1986 12.0734V0H77.9472V10.9145C76.9006 10.0756 75.5727 9.59127 74.1743 9.59127C70.8764 9.59127 68.1853 12.2291 68.1853 15.481C68.1853 18.7328 70.8676 21.3706 74.1743 21.3706C75.5727 21.3706 76.9006 20.8863 77.9472 20.0474V21.6041H80.1986V18.8193C81.2803 20.3415 83.0743 21.336 85.1059 21.336C86.557 21.336 87.9201 20.8258 88.9754 19.9436V21.6128H91.0949V19.4333C92.1766 20.9555 93.9707 21.9501 96.0022 21.9501C97.4006 21.9501 98.7285 21.4658 99.7751 20.6269V25.669C99.7751 27.7187 98.0777 29.3792 96.0022 29.3792C93.9267 29.3792 92.2294 27.71 92.2294 25.669V24.8041H90.022V25.669C90.022 28.9122 92.7043 31.5587 96.011 31.5587C99.3177 31.5587 102 28.9208 102 25.669V9.92857H99.7927H99.7663ZM85.1059 19.1479C83.0216 19.1479 81.333 17.4788 81.333 15.4377C81.333 13.3966 83.0304 11.7275 85.1059 11.7275C87.1814 11.7275 88.8787 13.3966 88.8787 15.4377C88.8787 17.4788 87.1814 19.1479 85.1059 19.1479ZM74.1655 19.1825C72.0813 19.1825 70.3927 17.5134 70.3927 15.4723C70.3927 13.4312 72.09 11.7621 74.1655 11.7621C76.241 11.7621 77.9384 13.4312 77.9384 15.4723C77.9384 17.5134 76.241 19.1825 74.1655 19.1825Z" fill="#ADD3FF"/>
<g clip-path="url(#clip0_495_1073)">
<path d="M18 4H0V21.7301C1.84718 21.007 18 14.3607 18 4Z" fill="#ADD3FF"/>
<path d="M0 28H4.58784L0 22.0371V28Z" fill="#ADD3FF"/>
<path d="M4.58789 28.0004H18.0001V7.22949C17.4178 10.9835 14.7675 17.9666 4.58789 28.0103V28.0004Z" fill="#ADD3FF"/>
</g>
<defs>
<clipPath id="clip0_495_1073">
<rect width="18" height="24" fill="white" transform="translate(0 4)"/>
</clipPath>
</defs>
</svg>
