<svg width="180" height="52" viewBox="0 0 180 52" fill="none" xmlns="http://www.w3.org/2000/svg">
<g clip-path="url(#clip0_18_1380)">
<path d="M115.288 26.7915C115.288 30.1172 112.585 32.815 109.272 32.815C108.274 32.815 107.302 32.5673 106.445 32.1074L116.993 20.883L115.651 19.6801C113.901 18.1057 111.631 17.23 109.272 17.23C105.509 17.23 102.24 19.4324 100.694 22.6078C100.376 21.9533 99.9872 21.3341 99.5278 20.768H101.604V17.2388H92.5133C92.5133 17.2388 92.4692 17.2388 92.4427 17.2388C92.2395 17.2212 92.0274 17.2212 91.8243 17.2388C91.7978 17.2388 91.7801 17.2388 91.7536 17.2388H90.2871V17.4069C87.9371 17.8668 85.9052 19.1848 84.5182 21.0157V16.8408H81.1435V19.4766C79.465 18.0437 77.3006 17.2212 74.9771 17.2212C71.2137 17.2212 67.9538 19.4147 66.399 22.5901C64.8441 19.4147 61.5843 17.2212 57.8208 17.2212C55.5239 17.2212 53.3771 18.0349 51.6986 19.4501V16.8408H48.103V51.876H51.6986V34.0975C53.3771 35.5127 55.5327 36.3264 57.8208 36.3264C61.5843 36.3264 64.8441 34.1329 66.399 30.9575C67.9538 34.1329 71.2137 36.3264 74.9771 36.3264C77.3006 36.3264 79.4562 35.5039 81.1435 34.071V36.7687H84.5182V32.5231C86.2586 34.8316 89.0238 36.3264 92.1335 36.3264C95.4552 36.3264 98.1497 39.033 98.1497 42.3499C98.1497 45.6668 95.4463 48.3734 92.1335 48.3734C88.8206 48.3734 86.1173 45.6668 86.1173 42.3499V40.9436H82.5924V42.3499C82.5924 47.6127 86.8682 51.9026 92.1335 51.9026C97.3987 51.9026 101.675 47.6216 101.675 42.3499C101.675 39.1746 100.146 36.3176 97.6638 34.5574C98.9713 33.6287 100.014 32.3904 100.712 30.9663C101.18 31.9216 101.807 32.8061 102.593 33.5756C104.387 35.3446 106.772 36.3264 109.29 36.3264C114.546 36.3264 118.831 32.0454 118.831 26.7738V25.3674H115.306V26.7738L115.288 26.7915ZM109.272 20.7592C110.138 20.7592 110.986 20.9449 111.763 21.2987L103.954 29.6042C103.494 28.7462 103.256 27.7733 103.256 26.7826C103.256 23.4569 105.959 20.7592 109.272 20.7592ZM92.1158 32.815C88.7941 32.815 86.0996 30.1084 86.0996 26.7915C86.0996 23.4746 88.5997 20.9449 91.8066 20.7857H92.4338C95.6407 20.9538 98.1408 23.5807 98.1408 26.7915C98.1408 30.0022 95.4375 32.815 92.1246 32.815H92.1158ZM74.9683 32.815C71.6466 32.815 68.9521 30.1084 68.9521 26.7915C68.9521 23.4746 71.6554 20.768 74.9683 20.768C78.2812 20.768 80.9845 23.4746 80.9845 26.7915C80.9845 30.1084 78.2812 32.815 74.9683 32.815ZM57.812 32.815C54.4903 32.815 51.7958 30.1084 51.7958 26.7915C51.7958 23.4746 54.4991 20.768 57.812 20.768C61.1249 20.768 63.8282 23.4746 63.8282 26.7915C63.8282 30.1084 61.1249 32.815 57.812 32.815Z" fill="url(#paint0_linear_18_1380)"/>
<path d="M176.484 16.1157V26.0486C176.484 29.3744 173.781 32.0721 170.468 32.0721C167.155 32.0721 164.452 29.3655 164.452 26.0486V16.1157H162.658V15.125H159.283V17.7608C157.605 16.3279 155.44 15.5054 153.117 15.5054C149.884 15.5054 147.03 17.124 145.299 19.5918V0H141.703V17.7078C140.033 16.3456 137.913 15.5584 135.687 15.5584C130.43 15.5584 126.146 19.8394 126.146 25.1111C126.146 30.3827 130.422 34.6637 135.687 34.6637C137.922 34.6637 140.033 33.8765 141.703 32.5144V35.0441H145.299V30.5242C147.021 32.992 149.884 34.6106 153.117 34.6106C155.44 34.6106 157.596 33.7881 159.283 32.3552V35.0529H162.658V31.5149C164.381 33.9826 167.243 35.6013 170.477 35.6013C172.712 35.6013 174.823 34.8141 176.493 33.4519V41.6336C176.493 44.9593 173.789 47.6571 170.477 47.6571C167.164 47.6571 164.46 44.9505 164.46 41.6336V40.2272H160.935V41.6336C160.935 46.8964 165.211 51.1863 170.477 51.1863C175.742 51.1863 180.018 46.9053 180.018 41.6336V16.1245H176.493L176.484 16.1157ZM153.108 31.0726C149.786 31.0726 147.092 28.366 147.092 25.0492C147.092 21.7323 149.795 19.0257 153.108 19.0257C156.421 19.0257 159.124 21.7323 159.124 25.0492C159.124 28.366 156.421 31.0726 153.108 31.0726ZM135.678 19.0788C139 19.0788 141.694 21.7853 141.694 25.1022C141.694 28.4191 138.991 31.1257 135.678 31.1257C132.365 31.1257 129.662 28.4191 129.662 25.1022C129.662 21.7853 132.365 19.0788 135.678 19.0788Z" fill="url(#paint1_linear_18_1380)"/>
<path d="M33.0493 7.27051H0V40.3244C3.39239 38.9711 33.0493 26.5881 33.0493 7.27051Z" fill="url(#paint2_linear_18_1380)"/>
<path d="M0 52.0001H8.41914L0 40.8818V52.0001Z" fill="url(#paint3_linear_18_1380)"/>
<path d="M8.41919 52H33.0494V13.2764C31.9716 20.2639 27.1127 33.2838 8.41919 52Z" fill="url(#paint4_linear_18_1380)"/>
</g>
<defs>
<linearGradient id="paint0_linear_18_1380" x1="29.2152" y1="18.8752" x2="208.326" y2="74.7323" gradientUnits="userSpaceOnUse">
<stop stop-color="#69C1ED"/>
<stop offset="1" stop-color="#3483BE"/>
</linearGradient>
<linearGradient id="paint1_linear_18_1380" x1="38.668" y1="-11.4455" x2="217.788" y2="44.4028" gradientUnits="userSpaceOnUse">
<stop stop-color="#69C1ED"/>
<stop offset="1" stop-color="#3483BE"/>
</linearGradient>
<linearGradient id="paint2_linear_18_1380" x1="-16.5732" y1="-5.33368" x2="51.4522" y2="54.3861" gradientUnits="userSpaceOnUse">
<stop stop-color="#69C1ED"/>
<stop offset="1" stop-color="#348ACB"/>
</linearGradient>
<linearGradient id="paint3_linear_18_1380" x1="-34.9929" y1="15.6469" x2="33.0326" y2="75.3667" gradientUnits="userSpaceOnUse">
<stop stop-color="#69C1ED"/>
<stop offset="1" stop-color="#348ACB"/>
</linearGradient>
<linearGradient id="paint4_linear_18_1380" x1="-19.1175" y1="-2.43243" x2="48.908" y2="57.2873" gradientUnits="userSpaceOnUse">
<stop stop-color="#69C1ED"/>
<stop offset="1" stop-color="#348ACB"/>
</linearGradient>
<clipPath id="clip0_18_1380">
<rect width="180" height="52" fill="white"/>
</clipPath>
</defs>
</svg>
