<svg width="16" height="16" viewBox="0 0 16 16" fill="none" xmlns="http://www.w3.org/2000/svg">
<path d="M16 8C16 12.4183 12.4183 16 8 16C3.58172 16 0 12.4183 0 8C0 3.58172 3.58172 0 8 0C12.4183 0 16 3.58172 16 8Z" fill="#565656"/>
<path d="M5 12.88V4H7.928C9.752 4 11.144 4.54 11.144 6.196C11.144 7.012 10.7 7.84 9.944 8.116V8.164C10.892 8.392 11.6 9.076 11.6 10.264C11.6 12.052 10.112 12.88 8.168 12.88H5ZM6.776 7.612H7.808C8.936 7.612 9.416 7.168 9.416 6.448C9.416 5.668 8.9 5.368 7.832 5.368H6.776V7.612ZM6.776 11.512H8.012C9.212 11.512 9.872 11.08 9.872 10.168C9.872 9.304 9.236 8.932 8.012 8.932H6.776V11.512Z" fill="white"/>
</svg>
