<svg width="20" height="20" viewBox="0 0 20 20" fill="none" xmlns="http://www.w3.org/2000/svg">
<path d="M9.97501 1.94167L12.0826 5.64167C12.4991 6.36667 13.1989 6.9 14.0069 7.1L18.0888 8.11667L15.3814 11.1417C14.8233 11.7667 14.5401 12.6083 14.6067 13.45L14.9899 18.125L11.4662 16.175C11.0163 15.925 10.4998 15.7917 9.98334 15.7917C9.46685 15.7917 8.9587 15.925 8.50053 16.175L4.97677 18.125L5.35997 13.45C5.42661 12.6083 5.14338 11.7667 4.58524 11.1417L1.87786 8.11667L5.95976 7.1C6.76781 6.9 7.46756 6.36667 7.88408 5.64167L9.99167 1.94167M9.99167 0C9.51684 0 9.042 0.233333 8.77543 0.708333L6.43459 4.81667C6.24299 5.15 5.92643 5.39167 5.5599 5.48333L1.06148 6.60833C0.0368437 6.86667 -0.346355 8.125 0.361729 8.91667L3.35234 12.2583C3.61058 12.55 3.73554 12.9333 3.71055 13.3167L3.2857 18.475C3.21073 19.3417 3.91048 20 4.68521 20C4.91013 20 5.13505 19.9417 5.35997 19.825L9.32524 17.6333C9.5335 17.5167 9.76675 17.4583 10 17.4583C10.2333 17.4583 10.4665 17.5167 10.6748 17.6333L14.64 19.825C14.8566 19.95 15.0899 20 15.3148 20C16.0895 20 16.7809 19.3417 16.7143 18.475L16.2895 13.3167C16.2561 12.9333 16.3894 12.55 16.6477 12.2583L19.6383 8.91667C20.3464 8.125 19.9632 6.86667 18.9385 6.60833L14.4401 5.48333C14.0652 5.39167 13.7487 5.15 13.5654 4.81667L11.1912 0.708333C10.9247 0.233333 10.4498 0 9.97501 0L9.99167 0Z" fill="#D9D9D9"/>
</svg>
