<svg width="16" height="16" viewBox="0 0 16 16" fill="none" xmlns="http://www.w3.org/2000/svg">
<path d="M11.3823 0H4.6177C2.0672 0 0 2.06713 0 4.61781V11.3822C0 13.9329 2.0672 16 4.6177 16H11.3823C13.9328 16 16 13.9329 16 11.3822V4.61781C16 2.06713 13.9328 0 11.3823 0ZM14.5263 11.5013C14.5263 13.1937 13.1544 14.5666 11.4603 14.5666H4.538C2.84558 14.5666 1.47197 13.1937 1.47197 11.5013V4.57982C1.47197 2.88743 2.84388 1.51452 4.538 1.51452H11.4603C13.1527 1.51452 14.5263 2.88743 14.5263 4.57982V11.5013Z" fill="#565656"/>
<path d="M8.00096 3.8877C5.70822 3.8877 3.84961 5.74587 3.84961 8.03923C3.84961 10.3326 5.70822 12.1908 8.00096 12.1908C10.2937 12.1908 12.1523 10.3326 12.1523 8.03923C12.1523 5.74587 10.2937 3.8877 8.00096 3.8877ZM8.00096 10.7298C6.51543 10.7298 5.3097 9.52439 5.3097 8.03923C5.3097 6.55407 6.51543 5.34868 8.00096 5.34868C9.48649 5.34868 10.6922 6.55407 10.6922 8.03923C10.6922 9.52439 9.48649 10.7298 8.00096 10.7298Z" fill="#565656"/>
<path d="M12.2908 4.69686C12.8247 4.69686 13.2574 4.26388 13.2574 3.72978C13.2574 3.19567 12.8247 2.7627 12.2908 2.7627C11.757 2.7627 11.3242 3.19567 11.3242 3.72978C11.3242 4.26388 11.757 4.69686 12.2908 4.69686Z" fill="#565656"/>
</svg>
