<svg width="20" height="20" viewBox="0 0 20 20" fill="none" xmlns="http://www.w3.org/2000/svg">
<rect width="20" height="20" fill="white"/>
<path d="M1.5 6.17917C1.5 6.17915 1.5 6.17913 1.5 6.17911V6.17905L1.5 6.17895C1.5 6.17885 1.5 6.17875 1.5 6.17866C1.50026 3.56758 3.48371 1.5 5.86003 1.5C7.51453 1.5 8.97206 2.49655 9.71464 3.98811L10.1622 4.88718L10.6098 3.98811C11.3524 2.49655 12.8099 1.5 14.4644 1.5C16.8495 1.5 18.8321 3.56123 18.8321 6.17917V6.19386L18.8328 6.20566C18.8328 6.20519 18.8328 6.20521 18.8328 6.2057L18.8328 6.20593L18.8329 6.20673L18.8331 6.2144C18.8333 6.22396 18.8335 6.24096 18.8331 6.26493C18.8324 6.31288 18.8293 6.38861 18.8193 6.48843L18.8183 6.49902L18.8176 6.50966C18.7968 6.8737 18.7327 7.23145 18.6336 7.57361H18.6176L18.5098 7.92824C17.875 10.0176 15.9584 13.8993 10.1625 18.6869C4.36589 13.8919 2.44945 10.0174 1.81463 7.92824L1.81062 7.91505L1.80589 7.90209C1.64726 7.46774 1.54936 7.00257 1.51415 6.5045C1.50693 6.39237 1.50339 6.30855 1.50166 6.25401C1.50079 6.22661 1.50037 6.2066 1.50018 6.19409L1.50001 6.18096L1.5 6.17917Z" stroke="#D9D9D9"/>
</svg>
