<svg width="24" height="24" viewBox="0 0 24 24" fill="none" xmlns="http://www.w3.org/2000/svg">
<path d="M23.6901 22.2597L18.1015 16.6688C19.8111 14.5785 20.7108 11.8081 20.3209 8.82758C19.7111 4.17684 15.8521 0.476255 11.1833 0.0461869C4.77495 -0.553909 -0.553678 4.77694 0.0461676 11.188C0.476057 15.8587 4.1851 19.7193 8.83391 20.3294C11.8131 20.7195 14.5924 19.8193 16.6719 18.1091L22.2604 23.7C22.6603 24.1 23.3002 24.1 23.7001 23.7C24.1 23.2999 24.1 22.6598 23.7001 22.2597H23.6901ZM10.2036 18.6191C5.56475 18.6191 1.79572 14.8585 1.79572 10.2078C1.79572 5.55706 5.56475 1.79647 10.2036 1.79647C14.8424 1.79647 18.6114 5.55706 18.6114 10.2078C18.6114 14.8585 14.8524 18.6191 10.2036 18.6191Z" fill="white"/>
</svg>
