<svg width="40" height="40" viewBox="0 0 40 40" fill="none" xmlns="http://www.w3.org/2000/svg">
<rect width="40" height="40" fill="white"/>
<path d="M32 20.3544V19.5148C32 19.0132 31.662 18.577 31.1713 18.4571L28.4234 17.7701C28.2054 16.9632 27.8782 16.1999 27.4639 15.502L28.9032 13.114C29.1649 12.6888 29.0886 12.1327 28.7397 11.7728L28.1399 11.1731C27.7801 10.8133 27.2349 10.7478 26.7987 11.0095L24.378 12.4598C23.6692 12.0454 22.906 11.7401 22.0881 11.5329L21.4121 8.82871C21.2921 8.33803 20.856 8 20.3544 8H19.5148C19.0132 8 18.577 8.33803 18.4571 8.82871L17.7701 11.5766C16.9632 11.7946 16.1999 12.1218 15.502 12.5361L13.114 11.0968C12.6888 10.8351 12.1327 10.9114 11.7728 11.2603L11.1731 11.8601C10.8133 12.2199 10.7478 12.7651 11.0095 13.2013L12.4598 15.622C12.0454 16.3308 11.7401 17.094 11.5329 17.9119L8.82871 18.5879C8.33803 18.7079 8 19.144 8 19.6456V20.4852C8 20.9868 8.33803 21.423 8.82871 21.5429L11.5766 22.2299C11.7946 23.0368 12.1218 23.8001 12.5361 24.498L11.0968 26.886C10.8351 27.3112 10.9114 27.8673 11.2603 28.2272L11.8601 28.8269C12.2199 29.1867 12.7651 29.2522 13.2013 28.9905L15.622 27.5402C16.3308 27.9546 17.094 28.2599 17.9119 28.4671L18.5879 31.1713C18.7079 31.662 19.144 32 19.6456 32H20.4852C20.9868 32 21.423 31.662 21.5429 31.1713L22.2299 28.4234C23.0368 28.2054 23.8001 27.8782 24.498 27.4639L26.886 28.9032C27.3112 29.1649 27.8673 29.0886 28.2272 28.7397L28.8269 28.1399C29.1867 27.7801 29.2522 27.2349 28.9905 26.7987L27.5402 24.378C27.9546 23.6692 28.2599 22.906 28.4671 22.0881L31.1713 21.4121C31.662 21.2921 32 20.856 32 20.3544ZM21.4993 26.2644C16.7233 27.3221 12.5688 23.1677 13.6265 18.3916C14.1608 15.9818 16.1018 14.0409 18.5007 13.5175C23.2767 12.4598 27.4312 16.6143 26.3735 21.3903C25.8392 23.8001 23.8982 25.741 21.4993 26.2644Z" fill="#EBEBEB"/>
</svg>
