<svg width="20" height="20" viewBox="0 0 20 20" fill="none" xmlns="http://www.w3.org/2000/svg">
<rect width="20" height="20" fill="white"/>
<path d="M15.0823 6.58496H12.3891V7.88483H15.0823C15.4325 7.88483 15.7243 8.17646 15.7243 8.53476V18.0504C15.7243 18.4087 15.4325 18.7004 15.0823 18.7004H3.92607C3.57588 18.7004 3.28405 18.4087 3.28405 18.0504V8.53476C3.28405 8.17646 3.57588 7.88483 3.92607 7.88483H6.6109V6.58496H3.92607C2.85881 6.58496 2 7.45987 2 8.53476V18.0504C2 19.1253 2.86715 20.0002 3.92607 20.0002H15.0739C16.1412 20.0002 17 19.1253 17 18.0504V8.53476C17 7.45987 16.1329 6.58496 15.0739 6.58496H15.0823Z" fill="#D9D9D9"/>
<path d="M8.86239 1.85189V12.5175H10.1464V1.85189L12.6145 4.3433L13.5233 3.42673L10.5633 0.443704C9.97967 -0.147901 9.02081 -0.147901 8.43715 0.443704L5.47717 3.42673L6.38601 4.3433L8.85405 1.85189H8.86239Z" fill="#D9D9D9"/>
</svg>
